PathFileType	4	(X/Y/Z)	Patient4_TMGait_0pt3_01_left_02.trc.trc
DataRate	CameraRate	NumFrames	NumMarkers	Units	OrigDataRate	OrigDataStartFrame	OrigNumFrames
52.238805970149	52.238805970149	6	33	mm	52.238805970149	53	       141
Frame#	Time	Sacral			L.Shoulder			Chest			R.Shoulder			Neck			R.ASIS			L.ASIS			R.Thigh.Superior			R.Thigh.Lateral			R.Thigh.Inferior			R.Patella			L.Thigh.Superior			L.Thigh.Lateral			L.Thigh.Inferior			L.Patella			L.Shank.Superior			L.Shank.Lateral			L.Shank.Inferior			R.Shank.Superior			R.Shank.Lateral			R.Shank.Inferior			R.Heel			R.Midfoot.Superior			R.Midfoot.Lateral			R.Toe			L.Heel			L.Midfoot.Lateral			L.Midfoot.Superior			L.Toe			L.Elbow			L.Wrist			R.Elbow			R.Wrist			
		X1	Y1	Z1	X2	Y2	Z2	X3	Y3	Z3	X4	Y4	Z4	X5	Y5	Z5	X6	Y6	Z6	X7	Y7	Z7	X8	Y8	Z8	X9	Y9	Z9	X10	Y10	Z10	X11	Y11	Z11	X12	Y12	Z12	X13	Y13	Z13	X14	Y14	Z14	X15	Y15	Z15	X16	Y16	Z16	X17	Y17	Z17	X18	Y18	Z18	X19	Y19	Z19	X20	Y20	Z20	X21	Y21	Z21	X22	Y22	Z22	X23	Y23	Z23	X24	Y24	Z24	X25	Y25	Z25	X26	Y26	Z26	X27	Y27	Z27	X28	Y28	Z28	X29	Y29	Z29	X30	Y30	Z30	X31	Y31	Z31	X32	Y32	Z32	X33	Y33	Z33	

53	3.965428571429	792.473338314589	994.698709190231	452.743203568260	923.566834848918	1422.202874283580	243.030023094808	1043.873955473545	1370.413812925146	397.489822834720	971.969372109380	1451.043181149520	573.180403390865	922.740566991694	1493.694803068299	397.251916411151	1029.573746574112	942.677193151052	557.346437618008	1003.510935087321	969.136268662816	284.593199269889	1100.943102310485	756.102406096893	523.771674322004	1049.505564106498	636.192020431349	592.952464758142	1132.930941556459	591.727154027359	509.213285937318	1140.269538424613	477.928417094654	532.230686196524	1063.338530292166	755.615884944964	319.062417120722	978.540166244188	633.768727887334	264.405934210493	1063.306041447966	560.993043228172	330.764865958206	1063.639663944306	491.867123235067	342.034552232508	1038.588654783553	418.362027433867	335.365398698481	949.737893223558	301.099329828472	291.322036222488	1004.747329356630	193.512507549557	364.768317876211	1059.158242595072	409.582935511580	542.022900380862	931.848358018669	378.358982197198	594.401964035707	917.650662329458	266.588506055805	553.494403753347	721.155478321666	216.642585867799	504.609663842250	875.086495913400	147.080459239335	580.283415564030	763.157580698338	169.980134357367	596.359286746542	916.455805289369	37.066017026139	639.006906227056	879.805330782374	37.437115729691	415.207736993819	947.711262855570	35.297190130819	328.982881277307	1031.518639585615	97.875461884380	350.887814654371	1157.200782055606	51.498121826928	312.428882094342	953.823776539852	1070.720063421047	127.593512116748	1100.880162997517	855.800531785737	118.754643362432	1071.948625624712	1116.093565085218	691.288423985649	1320.692848227685	1054.355720321913	674.216286784101	
54	3.984571428571	791.033143026252	994.226415622179	448.523007322477	925.821267795978	1423.159476543860	241.991340959082	1043.383867781074	1370.424001307699	398.240311507553	968.548435990527	1449.889604044179	573.212886400550	922.658529367216	1493.881005944551	396.602866112223	1027.013006748951	943.274994941925	556.274551791928	1004.346048405361	968.965932341861	283.172368683396	1101.609743830502	758.679698880999	522.055485421542	1052.449677323390	638.271406270173	591.141196219850	1136.154802788037	594.991263649297	506.898599048461	1145.494538928354	481.118295333386	530.058784420673	1063.457248008532	755.027122595016	318.560926497755	978.718072258385	633.154361297658	263.584188028373	1062.646058060791	560.212683319542	330.996911178122	1062.689676431866	490.829119610083	342.375669974614	1036.737836302441	417.456486281843	335.585560345969	946.941277573084	301.019318372183	291.245602777897	1000.420329239317	192.982597422802	365.099476979171	1064.982571849910	411.905850403347	540.328919909362	937.910137554097	379.618320571302	592.915422683854	924.850541277461	267.610888363047	552.260027501884	728.479736225929	214.270733575517	504.089187687639	883.973932915286	148.443054530713	578.978661126024	771.906335646319	168.888594455488	595.658258271053	927.969315231585	39.059698700032	637.901299292979	874.011519545180	37.434751831380	415.207108978802	941.980852651048	35.343936480329	329.030263659217	1025.926673420929	97.707316666098	351.162458967674	1151.517862799807	51.195393201212	312.534874671002	960.133725045312	1072.747344193159	124.804362086015	1114.877477232545	862.962028548836	117.688805260997	1058.901444368841	1111.219565582840	691.407088890784	1301.437670016028	1027.046472005163	679.290222599306	
55	4.003714285714	789.585406092067	993.700473095950	444.484105265268	928.320382326043	1423.980075718261	241.127646026687	1043.057427520601	1370.225363114308	399.143656595871	965.301568950467	1448.546755074460	573.341068789381	922.794581729495	1493.933523556424	396.125573149732	1024.445860068581	943.785838774647	555.355755910741	1005.134451707756	968.632005043643	281.935936100025	1101.875787654980	760.928753016054	520.627875106779	1054.750904216807	640.151747909207	589.680568332140	1138.625122944647	597.907313277843	504.987055604958	1149.947998776533	484.190175817336	528.338048793689	1063.591613084372	754.376339311504	318.127429570493	978.957686604687	632.448110427976	262.862267785473	1062.156256452421	559.397863253248	331.214237153346	1061.966155473997	489.727018514170	342.654638044870	1035.061593273198	416.456087506853	335.782437387407	944.221627877536	300.904714509685	291.189998327805	996.131748309282	192.394876425000	365.386577101421	1070.450965069105	413.887843298523	539.120789920938	943.947427477874	379.683707644201	592.028614897197	932.741073290657	267.402947205973	551.550287841813	736.823488970826	208.813543960628	504.377988344582	894.522440436883	148.741850436632	578.217987721715	782.284307840040	165.343496402766	595.703653336562	942.575172982773	41.037740852171	637.246216979411	868.223887323521	37.438644287494	415.207211059389	936.260875272865	35.388025584952	329.066507502379	1020.355163437384	97.537166001503	351.417684701751	1145.860228402280	50.839843213797	312.622336991681	966.410813779578	1074.645187933978	122.277117195950	1128.772011173426	870.341719273250	117.078466320599	1045.848288070378	1106.586560169287	691.733108188373	1279.726272450107	999.758194870888	684.299615528030	
56	4.022857142857	788.153991751894	993.150638455276	440.659791687528	931.021775925535	1424.660150984370	240.447978904730	1042.897980350436	1369.831585750784	400.174893948375	962.286095202110	1447.055685926744	573.553935272898	923.149166849206	1493.861576442922	395.830088216647	1021.913470387290	944.206970224773	554.596874575447	1005.856337858835	968.136991753778	280.886794879452	1101.755593533899	762.819285191247	519.541668922750	1056.361801409233	641.798068643830	588.613304051070	1140.356084643309	600.433613450555	503.576891108771	1153.636770045062	487.130211796162	527.170532618896	1063.706463521481	753.663908975929	317.774186214918	979.199982605590	631.665657946129	262.240635664808	1061.759568996257	558.544640467395	331.417310211656	1061.374559732568	488.573661904092	342.883941114293	1033.492601001886	415.375972184027	335.962026524962	941.545489897815	300.752621952210	291.154999256072	991.856486447145	191.754907708504	365.635053854459	1075.591906470737	415.525745402977	538.477383588706	950.010467864504	378.557153128282	591.749254223608	941.427146803347	265.986516230000	551.412221022512	746.511991675865	200.487271083661	505.347879708219	906.775923366825	147.893236124900	578.053684369992	794.399383670020	159.466018577207	596.414589131070	959.993864580696	42.820310389866	637.118622240509	862.445480622700	37.450410858959	415.207562480945	930.551531897192	35.429818083031	329.092109705703	1014.804456235724	97.360724163925	351.652828787640	1140.228038029362	50.427289835000	312.690453677553	972.695192969286	1076.404105617592	120.013136538571	1142.545860848367	877.930671404138	116.880543250659	1032.770670704918	1102.238494710051	692.238744186680	1255.541385193178	973.074492211345	689.114452474797	
57	4.042000000000	786.769697946631	992.624047785153	437.080443554502	933.886987539270	1425.216898128883	239.960918858543	1042.908553696262	1369.280703631043	401.315446517581	959.548626847048	1445.479470141287	573.844823121671	923.718287687919	1493.695499261538	395.720063102048	1019.451632458869	944.554767742113	554.013329402832	1006.496546258876	967.494928683703	280.037859699884	1101.265451013966	764.347949417390	518.849105705961	1057.239135301734	643.197328144814	587.971450001812	1141.360166933203	602.554983670422	502.751778362001	1156.562394257178	489.944431877269	526.629921572751	1063.757902082463	752.895807347949	317.522839509199	979.366665667104	630.835643117951	261.723340854248	1061.349651705130	557.654259412472	331.613333744659	1060.785173432222	487.390499989131	343.084441798471	1031.931937071120	414.244405367807	336.134561293425	938.855367478566	300.567976530972	291.141816340843	987.557030313689	191.077153450621	365.850504251803	1080.415144925876	416.851473338927	538.442849687005	956.145891812576	376.307955644469	592.072629542442	950.968297442171	263.474460784086	551.859073377735	757.803875848175	189.672853943914	506.880706476454	920.709499864394	145.918327531584	578.486786585001	808.313544990699	151.515179169824	597.694880031981	979.852159941104	44.290087016963	637.505706430648	856.678563222692	37.471270379335	415.206890603846	924.851396488657	35.469596852752	329.108223069430	1009.271028906880	97.177965868620	351.867142940214	1134.618753680789	49.961709955435	312.740143848072	978.999683053849	1078.036989605359	118.022265799174	1156.173556538187	885.750889311279	117.059652366600	1019.606397358115	1098.240877052613	692.879933712080	1228.967558981717	947.595877758782	693.603523365886	
58	4.061142857143	785.470154577578	992.178257067802	433.775882148105	936.885134933128	1425.686522758120	239.674502467804	1043.092190910236	1368.631647446807	402.555210803699	957.122496973727	1443.898537587134	574.211956670536	924.494993148660	1493.483421346938	395.792487548356	1017.088799792537	944.861372587281	553.625440360430	1007.048859457939	966.734357665699	279.410140596823	1100.424471098803	765.535743332735	518.595749271876	1057.351303226576	644.357309010880	587.774493669901	1141.647818956740	604.279371171584	502.571280178362	1158.720723847518	492.653334799991	526.751804055484	1063.694362057572	752.082687042349	317.401474178746	979.364490753798	629.997958592100	261.316951583389	1060.796309010772	556.734150938528	331.814538359751	1060.040265633326	486.206432088522	343.280899775932	1030.255051322502	413.100980353091	336.311402700441	936.072915309210	300.362647029917	291.151702453566	983.187301467079	190.384180660100	366.037060504457	1084.912090087382	417.925105400025	539.018030333636	962.395608556807	373.063701070460	592.980624294993	961.371781526737	260.060706472889	552.864805952983	770.860284322097	176.881858480349	508.873298483428	936.231979535462	142.947290177801	579.469502789210	824.032110272162	141.870063756910	599.439580617030	1001.724978527296	45.418006787082	638.316749954644	850.924120663979	37.501920496968	415.203014745764	919.157400492045	35.507384173934	329.116359731830	1003.747751745314	96.992818751829	352.059216006262	1129.027018094270	49.454908380288	312.773475408240	985.312953778440	1079.575200293736	116.319343527624	1169.620555007776	893.850000140646	117.589437085922	1006.256786636526	1094.681882575904	693.597602804497	1200.194832851997	923.906735562577	697.643559191365	
